<?xml version="1.0" encoding="utf-8"?>
<!-- Generator: Adobe Illustrator 26.5.0, SVG Export Plug-In . SVG Version: 6.00 Build 0)  -->
<svg version="1.1" id="Layer_1" xmlns="http://www.w3.org/2000/svg" xmlns:xlink="http://www.w3.org/1999/xlink" x="0px" y="0px"
	 viewBox="0 0 512 512" style="enable-background:new 0 0 512 512;" xml:space="preserve">
<style type="text/css">
	.st0{fill:#FF7D00;}
	.st1{fill:#8C8C8C;}
</style>
<g id="XMLID_1_">
	<path id="XMLID_3_" class="st0" d="M325.7,221.78c1.82-0.7,3.51-1.4,5.33-2.24c-0.56,4.77-1.26,9.4-1.82,14.17
		C327.94,229.77,326.82,225.85,325.7,221.78z"/>
	<path id="XMLID_4_" class="st0" d="M337.76,220.1c1.68,0.84,3.37,1.68,5.05,2.66c-3.23,4.21-6.45,8.42-9.68,12.48
		C334.68,230.19,336.22,225.14,337.76,220.1z"/>
	<path id="XMLID_5_" class="st0" d="M366.93,225.71c4.35-0.28,8.84,0.14,12.76,1.96c3.51,1.68,6.17,4.91,7.43,8.56
		c0.14,0.42-0.14,0.7-0.42,0.84c-1.82,1.26-3.65,2.66-5.47,3.93c-0.28,0.28-0.84,0.14-0.98-0.28c-0.7-1.96-1.82-3.93-3.51-5.33
		c-1.68-1.4-3.79-2.1-5.89-2.24s-4.35,0-6.31,0.84c-1.4,0.56-2.81,1.68-3.51,3.09c-0.84,1.68-0.98,3.65-0.14,5.33
		c1.12,2.1,3.51,3.23,5.61,3.93c2.52,0.84,5.05,1.68,7.57,2.52c3.37,0.98,6.59,2.38,9.4,4.63c2.24,1.68,3.79,4.07,4.49,6.73
		c0.84,3.23,0.7,6.73-0.28,9.96c-1.12,3.51-3.65,6.45-6.87,8.13c-3.23,1.68-6.87,2.24-10.38,2.38c-4.07,0.14-8.27-0.56-11.92-2.52
		c-4.35-2.38-7.57-6.59-8.98-11.36c-0.14-0.42,0.28-0.56,0.56-0.84c1.68-1.12,3.51-2.24,5.19-3.51c0.28-0.28,0.7-0.42,0.98-0.14
		c0.28,0.42,0.42,0.98,0.56,1.4c1.54,3.51,4.35,6.59,7.99,8.13c2.66,1.12,5.75,1.12,8.56,0.42c2.24-0.56,4.49-2.1,5.47-4.35
		c0.98-2.66,0.42-6.03-1.82-7.85c-2.52-2.24-5.89-3.23-9.12-4.35c-3.65-1.26-7.43-2.38-10.66-4.49c-2.38-1.4-4.35-3.51-5.19-6.31
		c-1.12-3.65-1.12-7.71,0.7-11.08c1.4-2.95,3.93-5.19,6.73-6.59C362.31,226.55,364.55,225.85,366.93,225.71z"/>
	<path id="XMLID_6_" class="st0" d="M394.56,227.39c-0.14-0.42,0.42-0.7,0.84-0.7c2.38,0,4.63,0,7.01,0c0.42,0,0.7,0.42,0.7,0.84
		c0,5.75,0,11.5,0,17.39c1.96-1.96,4.49-3.23,7.29-3.65c3.51-0.56,7.15-0.42,10.38,0.98c2.66,1.12,4.77,3.23,6.03,5.89
		c0.84,1.68,1.12,3.65,1.12,5.47c0,8.42,0,16.83,0,25.39c0,0.42-0.42,0.56-0.7,0.56c-2.38,0-4.63,0-7.01,0
		c-0.42,0-0.84-0.42-0.7-0.84c0-7.85,0-15.71,0-23.56c0-1.68-0.42-3.51-1.68-4.77c-1.4-1.54-3.51-2.24-5.47-2.24
		c-3.23,0-6.73,1.4-8.27,4.35c-0.42,0.7-0.84,1.4-0.84,2.24c0,7.99,0,15.99,0,23.98c0,0.42-0.28,0.84-0.7,0.84
		c-2.38,0-4.77,0-7.15,0c-0.42,0-0.7-0.42-0.56-0.84C394.56,261.75,394.56,244.5,394.56,227.39z"/>
	<path id="XMLID_7_" class="st0" d="M336.36,238.33c3.51-3.23,7.01-6.45,10.38-9.68c0.42,1.82,0.84,3.79,1.26,5.61
		C344.07,235.52,340.29,236.93,336.36,238.33z"/>
	<path id="XMLID_10_" class="st0" d="M315.32,236.51c3.79-1.12,7.99-1.26,11.78,0c3.37,0.98,6.31,3.09,8.7,5.61s4.35,5.61,5.61,8.84
		c0.14,0.42-0.14,0.84-0.42,0.98c-9.54,4.91-18.93,9.82-28.47,14.73c1.82,2.95,4.91,5.19,8.27,6.03c3.79,0.84,7.71-0.28,10.8-2.38
		c3.37-2.38,5.47-6.45,5.89-10.52c0-0.56,0.7-0.84,1.12-0.56c1.82,1.12,3.65,2.24,5.61,3.37c0.28,0.14,0.56,0.56,0.42,0.98
		c-1.4,5.75-4.63,11.08-9.54,14.45c-1.82,1.12-3.79,2.1-5.75,2.66c-6.87,1.54-14.45,0-19.92-4.63c-2.81-2.38-5.05-5.47-6.73-8.7
		c-0.7-1.26-1.12-2.66-1.4-4.07c-1.26-4.49-1.26-9.54,0.42-13.88C303.96,242.96,309.15,238.19,315.32,236.51 M318.55,243.38
		c-3.65,0.84-7.01,3.23-8.7,6.45c-1.68,2.95-2.24,6.73-0.7,9.96c7.01-3.79,14.17-7.57,21.18-11.5c-0.84-1.54-2.1-2.81-3.51-3.65
		C324.3,243.1,321.35,242.82,318.55,243.38z"/>
	<path id="XMLID_13_" class="st0" d="M450.8,240.99c2.66-0.14,5.33,0,7.85,0.84c2.95,0.84,5.75,2.52,7.85,4.91
		c3.37,3.79,4.77,9.12,4.77,14.17c0,5.19-1.54,10.52-5.19,14.31c-2.38,2.52-5.75,4.21-9.12,4.77c-2.52,0.42-5.05,0.56-7.57,0.14
		c-3.51-0.42-7.01-1.96-9.54-4.35c-3.65-3.23-5.47-7.99-5.89-12.76c-0.28-3.93,0-7.99,1.54-11.5c0.98-2.52,2.66-4.77,4.63-6.45
		C443.09,242.68,446.88,241.27,450.8,240.99 M450.66,248.29c-2.52,0.42-4.91,2.1-6.31,4.21c-1.82,2.95-2.24,6.45-1.96,9.82
		c0.28,2.52,0.98,5.05,2.52,7.15c1.82,2.38,4.77,3.79,7.71,3.65c2.95,0,6.03-1.4,7.71-3.93c2.1-3.09,2.52-6.87,2.24-10.52
		c-0.28-2.95-1.26-6.03-3.51-8.13C456.84,248.57,453.61,247.87,450.66,248.29z"/>
	<path id="XMLID_16_" class="st0" d="M484.75,245.62c1.96-2.52,5.05-3.93,8.13-4.35c4.35-0.56,9.12,0.28,12.62,3.09
		c3.09,2.38,4.91,5.89,5.75,9.68c0.84,3.65,0.98,7.57,0.42,11.36c-0.56,4.07-2.1,7.99-5.05,10.94c-4.21,4.21-10.94,5.33-16.41,3.37
		c-1.68-0.56-3.51-1.4-4.77-2.66c0,4.91,0,9.82,0,14.73c0,0.42-0.28,0.7-0.56,0.7c-2.38,0-4.77,0-7.15,0c-0.42,0-0.7-0.28-0.7-0.7
		c0-16.41,0-32.68,0-49.09c-0.14-0.42,0.28-0.84,0.7-0.7c2.1,0,4.35,0,6.45,0c0.28,0,0.56,0.14,0.7,0.28
		C484.75,243.24,484.75,244.36,484.75,245.62 M485.59,254.32c-0.28,0.98-0.42,2.1-0.42,3.23c0,3.65,0,7.15,0,10.8
		c0.98,1.26,2.1,2.38,3.37,3.37c2.1,1.68,4.91,1.96,7.43,1.54c2.38-0.42,4.49-2.1,5.61-4.21c1.12-2.1,1.68-4.49,1.82-6.73
		c0.14-2.38,0-4.77-0.56-7.01c-0.56-1.96-1.54-3.79-3.09-5.05c-1.82-1.68-4.49-2.24-6.87-1.96
		C489.51,248.57,486.57,251.09,485.59,254.32z"/>
	<path id="XMLID_17_" class="st1" d="M0.04,226.97c0.14-0.28,0.56-0.28,0.84-0.28c3.09,0,6.03,0,9.12,0c0.28,0,0.42,0.28,0.56,0.42
		c5.33,9.68,10.52,19.35,15.85,29.17c1.82,3.37,3.79,6.73,5.19,10.38c-0.14-2.52-0.28-5.05-0.28-7.57c0-10.52,0-21.04,0-31.56
		c0-0.28,0.14-0.56,0.28-0.7c2.66,0,5.19,0,7.85,0c0.14,0.28,0.28,0.42,0.28,0.7c0,17.11,0,34.22,0,51.33c0,0.42-0.28,0.7-0.7,0.7
		c-3.09,0-6.17,0-9.26,0c-0.28,0-0.7-0.14-0.84-0.42c-5.61-10.38-11.22-20.76-16.83-31.14c-0.98-1.82-2.1-3.79-2.95-5.75
		c-0.42-0.84-0.7-1.68-0.98-2.66c0.14,2.52,0.14,5.05,0.28,7.43c0,10.52,0,21.18,0,31.7c0.14,0.42-0.28,0.7-0.7,0.7
		c-2.38,0-4.63,0-7.01,0c-0.42,0-0.84-0.28-0.7-0.7c0-16.83,0-33.8,0-50.63C0.04,227.81,0.04,227.39,0.04,226.97z"/>
	<path id="XMLID_18_" class="st1" d="M48.42,227.25c0-0.28,0.28-0.56,0.56-0.56c2.66,0,5.33,0,7.99,0c0.42,0.42,0.28,0.98,0.28,1.54
		c0,2.52,0,5.19,0,7.71c0,0.42-0.28,0.7-0.7,0.56c-2.52,0-5.05,0-7.57,0c-0.42,0-0.7-0.28-0.56-0.56
		C48.28,233,48.28,230.19,48.42,227.25z"/>
	<path id="XMLID_21_" class="st1" d="M235.8,227.39c0-0.42,0.14-0.84,0.56-0.7c2.38,0,4.77,0,7.15,0c0.42-0.14,0.7,0.42,0.7,0.7
		c0,17.11,0,34.08,0,51.19c0,0.42-0.14,0.84-0.7,0.84c-1.96,0-4.07,0-6.03,0c-0.42,0-0.7-0.28-0.7-0.7c0-0.98,0-2.1,0-3.09
		c-1.96,2.52-5.05,3.79-8.13,4.35c-4.63,0.7-9.54-0.28-13.18-3.09c-2.66-2.1-4.49-5.05-5.61-8.13c-1.12-3.23-1.26-6.59-1.12-9.96
		c0.28-4.77,1.82-9.68,5.19-13.04c3.09-3.23,7.71-4.91,12.2-4.77c3.51,0,7.29,0.98,9.82,3.65
		C235.8,238.89,235.8,233.14,235.8,227.39 M225.28,248.15c-2.24,0.42-4.49,1.68-5.75,3.65c-1.82,2.52-2.52,5.75-2.38,8.84
		c0,2.95,0.56,6.03,2.24,8.56c1.54,2.24,4.07,3.79,6.87,3.93c2.95,0.28,6.03-0.98,7.99-3.37c1.12-1.4,1.82-3.23,1.82-5.19
		c0-3.51,0-7.01,0-10.52c0-0.28,0-0.56-0.14-0.7c-0.98-1.82-2.52-3.51-4.49-4.49C229.49,248.01,227.38,247.87,225.28,248.15z"/>
	<path id="XMLID_22_" class="st1" d="M109.01,230.61c0-0.28,0.28-0.56,0.7-0.56c2.38,0,4.63,0,7.01,0c0.42,0,0.56,0.42,0.56,0.7
		c0,3.65,0,7.15,0,10.8c1.96,0,3.79,0,5.75,0c0.28,0,0.56,0.14,0.7,0.28c0,2.1,0,4.07,0,6.17c0,0.28-0.28,0.56-0.56,0.56
		c-1.96,0-3.93,0-5.89,0c0,5.61,0,11.22,0,16.83c0,1.68-0.14,3.37,0.14,5.05c0.14,0.56,0.28,1.12,0.84,1.54
		c0.56,0.42,1.26,0.56,1.82,0.7c1.68,0.14,3.51,0,5.19,0.28c0.56,0.14,0.42,0.84,0.28,1.26c-0.42,1.82-0.98,3.65-1.4,5.47
		c0,0.28-0.14,0.56-0.42,0.56c-2.1,0.14-4.35,0-6.45-0.28c-2.38-0.28-4.91-1.26-6.59-3.23c-1.54-1.96-1.82-4.63-1.96-7.01
		c0-7.01,0-14.03,0-21.04c-1.54,0-3.09,0-4.49,0c-0.42,0-0.7-0.42-0.56-0.7c0-1.82,0-3.65,0-5.47c0-0.42,0.14-0.7,0.56-0.7
		c1.68,0,3.23,0,4.91,0C109.01,237.91,108.87,234.26,109.01,230.61z"/>
	<path id="XMLID_23_" class="st1" d="M81.94,241.13c3.23-0.42,6.59-0.28,9.68,1.12c2.38,1.12,4.49,2.95,5.75,5.33
		c0.98,1.82,1.54,3.93,1.54,6.03c0,8.42,0,16.83,0,25.39c0.14,0.42-0.42,0.7-0.84,0.7c-2.38,0-4.63,0-7.01,0
		c-0.28,0-0.7-0.28-0.56-0.7c0-7.57,0-15.29,0-22.86c0-1.4-0.14-2.95-0.7-4.35c-0.98-1.82-2.81-3.09-4.91-3.51
		c-2.52-0.42-5.19,0.14-7.29,1.4c-1.68,1.12-3.09,2.81-3.51,4.77c0,8.13,0,16.27,0,24.4c0,0.42-0.28,0.7-0.7,0.7
		c-2.38,0-4.77,0-7.15,0c-0.42,0-0.56-0.42-0.56-0.84c0-11.64,0-23.28,0-34.92c0-0.56,0-1.12,0-1.68c0.14-0.42,0.7-0.42,1.12-0.42
		c1.96,0,4.07,0,6.03,0c0.28,0,0.7,0.14,0.7,0.56c0,0.98,0,2.1,0,3.09C75.63,242.96,78.72,241.41,81.94,241.13z"/>
	<path id="XMLID_26_" class="st1" d="M143.09,241.13c3.23-0.42,6.45-0.42,9.54,0.56c3.09,0.98,5.89,2.95,7.71,5.47
		c2.52,3.37,3.65,7.71,3.65,11.92c0,0.56,0.14,1.26-0.14,1.82c-9.12,1.26-18.09,2.38-27.21,3.51c0.28,1.68,0.84,3.23,1.96,4.63
		c1.82,2.38,4.63,3.65,7.43,3.93c4.35,0.42,8.98-1.26,11.64-4.77c0.42-0.56,0.84-1.26,1.26-1.96c0.14-0.42,0.84-0.42,0.98-0.14
		c1.26,1.54,2.38,3.09,3.65,4.49c0.28,0.28,0.14,0.7,0,0.98c-1.82,2.66-4.35,5.05-7.29,6.59c-3.09,1.54-6.59,1.96-10.1,1.96
		c-3.93-0.14-7.85-1.26-10.94-3.79c-2.52-1.96-4.35-4.77-5.47-7.85c-1.26-3.37-1.54-7.01-1.26-10.52c0.28-3.93,1.68-7.85,4.21-10.94
		C135.38,243.94,139.17,241.83,143.09,241.13 M139.73,250.39c-2.1,1.82-3.09,4.63-3.23,7.43c6.45-0.84,12.9-1.68,19.21-2.52
		c-0.28-1.54-0.84-3.09-1.82-4.21c-1.4-1.68-3.37-2.66-5.47-2.95C145.34,247.58,141.97,248.29,139.73,250.39z"/>
	<path id="XMLID_27_" class="st1" d="M185.87,241.13c2.95-0.42,6.03-0.28,8.84,0.84c2.66,0.98,5.05,2.81,6.45,5.33
		c1.26,1.96,1.82,4.35,1.82,6.73c0,8.27,0,16.55,0,24.82c0,0.42-0.14,0.84-0.56,0.84c-2.38,0-4.63,0-7.01,0
		c-0.42,0-0.84-0.14-0.84-0.7c0-7.43,0-14.73,0-22.16c0-1.54,0-3.23-0.56-4.63c-0.84-1.96-2.81-3.37-4.77-3.79
		c-2.38-0.42-4.91-0.14-7.01,1.12c-1.96,1.12-3.51,2.95-4.07,5.19c0,8.13,0,16.27,0,24.4c0,0.42-0.28,0.7-0.7,0.7
		c-2.38,0-4.63,0-7.01,0c-0.42,0-0.84-0.28-0.7-0.7c0-12.2,0-24.26,0-36.47c-0.14-0.42,0.28-0.7,0.7-0.7c2.1,0,4.21,0,6.17,0
		c0.28,0,0.84,0.14,0.84,0.56c0,0.98,0,2.1,0,3.09C179.7,242.96,182.78,241.55,185.87,241.13z"/>
	<path id="XMLID_30_" class="st1" d="M266.09,240.99c3.93-0.42,8.13,0,11.64,1.82c3.23,1.54,5.75,4.21,7.43,7.29
		c1.96,3.79,2.52,7.99,2.24,12.2c-0.28,3.79-1.26,7.57-3.51,10.66c-2.1,2.95-5.19,5.19-8.7,6.31c-3.23,0.98-6.59,1.12-9.96,0.7
		c-4.21-0.56-8.13-2.66-10.8-5.89c-2.52-2.95-3.93-6.87-4.35-10.66c-0.28-3.65-0.14-7.43,1.12-10.8c1.12-3.23,3.09-6.17,5.89-8.27
		C259.78,242.4,262.87,241.27,266.09,240.99 M267.22,248.15c-2.24,0.28-4.49,1.54-5.89,3.37c-1.96,2.38-2.81,5.47-2.81,8.42
		c-0.14,3.37,0.56,6.87,2.81,9.68c1.96,2.52,5.19,3.93,8.27,3.51c2.95-0.14,5.75-1.82,7.15-4.35c1.96-3.37,2.24-7.43,1.82-11.08
		c-0.42-3.09-1.96-6.17-4.63-7.99C272.12,248.29,269.6,247.87,267.22,248.15z"/>
	<path id="XMLID_31_" class="st1" d="M48.99,241.69c2.38,0,4.91,0,7.29,0c0.42,0,0.7,0.28,0.7,0.7c0,12.06,0,24.12,0,36.33
		c0,0.28-0.14,0.84-0.56,0.84c-2.38,0-4.91,0-7.43,0c-0.42,0.14-0.7-0.42-0.7-0.84c0-12.06,0-24.12,0-36.04
		C48.42,242.12,48.56,241.69,48.99,241.69z"/>
</g>
</svg>
